<svg width="75" height="15" viewBox="0 0 75 15" fill="none" xmlns="http://www.w3.org/2000/svg">
<g id="Group 57">
<path id="Star 1" d="M6.54894 2.92705C6.8483 2.00574 8.1517 2.00574 8.45106 2.92705L8.95934 4.49139C9.09321 4.90341 9.47717 5.18237 9.9104 5.18237H11.5552C12.524 5.18237 12.9267 6.42199 12.143 6.99139L10.8123 7.9582C10.4618 8.21285 10.3152 8.66422 10.449 9.07624L10.9573 10.6406C11.2567 11.5619 10.2022 12.328 9.41849 11.7586L8.08779 10.7918C7.7373 10.5372 7.2627 10.5372 6.91221 10.7918L5.58151 11.7586C4.7978 12.328 3.74331 11.5619 4.04267 10.6406L4.55095 9.07624C4.68483 8.66422 4.53817 8.21285 4.18768 7.9582L2.85698 6.99139C2.07326 6.42199 2.47604 5.18237 3.44476 5.18237H5.0896C5.52283 5.18237 5.90678 4.90341 6.04066 4.49139L6.54894 2.92705Z" fill="#CDC7C7"/>
<path id="Star 2" d="M21.5489 2.92705C21.8483 2.00574 23.1517 2.00574 23.4511 2.92705L23.9593 4.49139C24.0932 4.90341 24.4772 5.18237 24.9104 5.18237H26.5552C27.524 5.18237 27.9267 6.42199 27.143 6.99139L25.8123 7.9582C25.4618 8.21285 25.3152 8.66422 25.449 9.07624L25.9573 10.6406C26.2567 11.5619 25.2022 12.328 24.4185 11.7586L23.0878 10.7918C22.7373 10.5372 22.2627 10.5372 21.9122 10.7918L20.5815 11.7586C19.7978 12.328 18.7433 11.5619 19.0427 10.6406L19.551 9.07624C19.6848 8.66422 19.5382 8.21285 19.1877 7.9582L17.857 6.99139C17.0733 6.42199 17.476 5.18237 18.4448 5.18237H20.0896C20.5228 5.18237 20.9068 4.90341 21.0407 4.49139L21.5489 2.92705Z" fill="#CDC7C7"/>
<path id="Star 3" d="M36.5489 2.92705C36.8483 2.00574 38.1517 2.00574 38.4511 2.92705L38.9593 4.49139C39.0932 4.90341 39.4772 5.18237 39.9104 5.18237H41.5552C42.524 5.18237 42.9267 6.42199 42.143 6.99139L40.8123 7.9582C40.4618 8.21285 40.3152 8.66422 40.449 9.07624L40.9573 10.6406C41.2567 11.5619 40.2022 12.328 39.4185 11.7586L38.0878 10.7918C37.7373 10.5372 37.2627 10.5372 36.9122 10.7918L35.5815 11.7586C34.7978 12.328 33.7433 11.5619 34.0427 10.6406L34.551 9.07624C34.6848 8.66422 34.5382 8.21285 34.1877 7.9582L32.857 6.99139C32.0733 6.42199 32.476 5.18237 33.4448 5.18237H35.0896C35.5228 5.18237 35.9068 4.90341 36.0407 4.49139L36.5489 2.92705Z" fill="#CDC7C7"/>
<path id="Star 4" d="M51.5489 2.92705C51.8483 2.00574 53.1517 2.00574 53.4511 2.92705L53.9593 4.49139C54.0932 4.90341 54.4772 5.18237 54.9104 5.18237H56.5552C57.524 5.18237 57.9267 6.42199 57.143 6.99139L55.8123 7.9582C55.4618 8.21285 55.3152 8.66422 55.449 9.07624L55.9573 10.6406C56.2567 11.5619 55.2022 12.328 54.4185 11.7586L53.0878 10.7918C52.7373 10.5372 52.2627 10.5372 51.9122 10.7918L50.5815 11.7586C49.7978 12.328 48.7433 11.5619 49.0427 10.6406L49.551 9.07624C49.6848 8.66422 49.5382 8.21285 49.1877 7.9582L47.857 6.99139C47.0733 6.42199 47.476 5.18237 48.4448 5.18237H50.0896C50.5228 5.18237 50.9068 4.90341 51.0407 4.49139L51.5489 2.92705Z" fill="#CDC7C7"/>
<path id="Star 5" d="M66.5489 2.92705C66.8483 2.00574 68.1517 2.00574 68.4511 2.92705L68.9593 4.49139C69.0932 4.90341 69.4772 5.18237 69.9104 5.18237H71.5552C72.524 5.18237 72.9267 6.42199 72.143 6.99139L70.8123 7.9582C70.4618 8.21285 70.3152 8.66422 70.449 9.07624L70.9573 10.6406C71.2567 11.5619 70.2022 12.328 69.4185 11.7586L68.0878 10.7918C67.7373 10.5372 67.2627 10.5372 66.9122 10.7918L65.5815 11.7586C64.7978 12.328 63.7433 11.5619 64.0427 10.6406L64.551 9.07624C64.6848 8.66422 64.5382 8.21285 64.1877 7.9582L62.857 6.99139C62.0733 6.42199 62.476 5.18237 63.4448 5.18237H65.0896C65.5228 5.18237 65.9068 4.90341 66.0407 4.49139L66.5489 2.92705Z" fill="#CDC7C7"/>
</g>
</svg>
